<mxfile host="65bd71144e">
    <diagram id="HkdIZme3s1p3yqm2Rv7T" name="第 1 页">
        <mxGraphModel dx="5437" dy="2875" grid="1" gridSize="10" guides="1" tooltips="1" connect="1" arrows="1" fold="1" page="1" pageScale="1" pageWidth="827" pageHeight="1169" math="0" shadow="0">
            <root>
                <mxCell id="0"/>
                <mxCell id="1" parent="0"/>
                <mxCell id="3" value="" style="rounded=1;whiteSpace=wrap;html=1;" vertex="1" parent="1">
                    <mxGeometry x="50" y="690" width="1410" height="390" as="geometry"/>
                </mxCell>
                <mxCell id="5" value="" style="rounded=1;whiteSpace=wrap;html=1;" vertex="1" parent="1">
                    <mxGeometry x="50" y="1130" width="1410" height="390" as="geometry"/>
                </mxCell>
                <mxCell id="6" value="&lt;font style=&quot;font-size: 43px&quot;&gt;connection controler&lt;/font&gt;" style="rounded=1;whiteSpace=wrap;html=1;" vertex="1" parent="1">
                    <mxGeometry x="60" y="1580" width="1410" height="390" as="geometry"/>
                </mxCell>
                <mxCell id="7" value="&lt;font style=&quot;font-size: 31px&quot;&gt;block generate&lt;/font&gt;" style="rounded=1;whiteSpace=wrap;html=1;fontSize=43;" vertex="1" parent="1">
                    <mxGeometry x="120" y="730" width="320" height="310" as="geometry"/>
                </mxCell>
                <mxCell id="8" value="&lt;font style=&quot;font-size: 31px&quot;&gt;block handler&lt;/font&gt;" style="rounded=1;whiteSpace=wrap;html=1;fontSize=43;" vertex="1" parent="1">
                    <mxGeometry x="590" y="730" width="320" height="310" as="geometry"/>
                </mxCell>
                <mxCell id="9" value="&lt;font style=&quot;font-size: 31px&quot;&gt;block body handler&lt;/font&gt;" style="rounded=1;whiteSpace=wrap;html=1;fontSize=43;" vertex="1" parent="1">
                    <mxGeometry x="1081" y="730" width="320" height="310" as="geometry"/>
                </mxCell>
                <mxCell id="12" value="&lt;font style=&quot;font-size: 31px&quot;&gt;message receiver&lt;/font&gt;" style="rounded=1;whiteSpace=wrap;html=1;fontSize=43;" vertex="1" parent="1">
                    <mxGeometry x="110" y="1170" width="920" height="320" as="geometry"/>
                </mxCell>
                <mxCell id="13" value="&lt;font style=&quot;font-size: 31px&quot;&gt;message sender&lt;/font&gt;" style="rounded=1;whiteSpace=wrap;html=1;fontSize=43;" vertex="1" parent="1">
                    <mxGeometry x="1070" y="1169" width="320" height="310" as="geometry"/>
                </mxCell>
                <mxCell id="16" value="&lt;font style=&quot;font-size: 43px&quot;&gt;leveldb storage&lt;/font&gt;" style="rounded=1;whiteSpace=wrap;html=1;" vertex="1" parent="1">
                    <mxGeometry x="-470" y="690" width="450" height="390" as="geometry"/>
                </mxCell>
                <mxCell id="22" value="&lt;font style=&quot;font-size: 46px&quot;&gt;系统模块&lt;/font&gt;" style="text;html=1;align=center;verticalAlign=middle;resizable=0;points=[];autosize=1;strokeColor=none;fillColor=none;fontSize=19;" vertex="1" parent="1">
                    <mxGeometry x="450" y="610" width="200" height="40" as="geometry"/>
                </mxCell>
                <mxCell id="23" value="block generate 流程" style="text;html=1;align=center;verticalAlign=middle;resizable=0;points=[];autosize=1;strokeColor=none;fillColor=none;fontSize=46;" vertex="1" parent="1">
                    <mxGeometry x="270" y="2278" width="420" height="60" as="geometry"/>
                </mxCell>
                <mxCell id="26" style="edgeStyle=none;html=1;exitX=0.5;exitY=1;exitDx=0;exitDy=0;entryX=0.5;entryY=0;entryDx=0;entryDy=0;fontSize=37;" edge="1" parent="1" source="24" target="25">
                    <mxGeometry relative="1" as="geometry"/>
                </mxCell>
                <mxCell id="24" value="&lt;font style=&quot;font-size: 37px&quot;&gt;开始&lt;/font&gt;" style="ellipse;whiteSpace=wrap;html=1;fontSize=46;" vertex="1" parent="1">
                    <mxGeometry x="322.5" y="2380" width="275" height="110" as="geometry"/>
                </mxCell>
                <mxCell id="89" style="edgeStyle=none;html=1;exitX=0.5;exitY=1;exitDx=0;exitDy=0;entryX=0.5;entryY=0;entryDx=0;entryDy=0;fontSize=37;" edge="1" parent="1" source="25" target="88">
                    <mxGeometry relative="1" as="geometry"/>
                </mxCell>
                <mxCell id="25" value="&lt;font style=&quot;font-size: 37px&quot;&gt;从leveldb初始化链&lt;/font&gt;" style="rounded=0;whiteSpace=wrap;html=1;fontSize=46;" vertex="1" parent="1">
                    <mxGeometry x="270" y="2570" width="380" height="150" as="geometry"/>
                </mxCell>
                <mxCell id="93" style="edgeStyle=none;html=1;exitX=0.5;exitY=1;exitDx=0;exitDy=0;entryX=0.5;entryY=0;entryDx=0;entryDy=0;fontSize=37;" edge="1" parent="1" source="27" target="28">
                    <mxGeometry relative="1" as="geometry"/>
                </mxCell>
                <mxCell id="27" value="计算区块头pow" style="rounded=0;whiteSpace=wrap;html=1;fontSize=37;" vertex="1" parent="1">
                    <mxGeometry x="265" y="3080" width="390" height="60" as="geometry"/>
                </mxCell>
                <mxCell id="95" style="edgeStyle=none;html=1;exitX=0.5;exitY=1;exitDx=0;exitDy=0;entryX=0.5;entryY=0;entryDx=0;entryDy=0;fontSize=37;" edge="1" parent="1" source="28" target="94">
                    <mxGeometry relative="1" as="geometry"/>
                </mxCell>
                <mxCell id="97" style="edgeStyle=none;html=1;exitX=0;exitY=0.5;exitDx=0;exitDy=0;entryX=0;entryY=0.5;entryDx=0;entryDy=0;fontSize=37;" edge="1" parent="1" source="28" target="38">
                    <mxGeometry relative="1" as="geometry">
                        <Array as="points">
                            <mxPoint x="120" y="3265"/>
                            <mxPoint x="120" y="3905"/>
                        </Array>
                    </mxGeometry>
                </mxCell>
                <mxCell id="28" value="是否成功" style="rhombus;whiteSpace=wrap;html=1;fontSize=37;" vertex="1" parent="1">
                    <mxGeometry x="260" y="3210" width="400" height="110" as="geometry"/>
                </mxCell>
                <mxCell id="39" style="edgeStyle=none;html=1;exitX=0.5;exitY=1;exitDx=0;exitDy=0;entryX=0.5;entryY=0;entryDx=0;entryDy=0;fontSize=37;" edge="1" parent="1" source="32" target="38">
                    <mxGeometry relative="1" as="geometry"/>
                </mxCell>
                <mxCell id="32" value="提交到block accept上链" style="rounded=0;whiteSpace=wrap;html=1;fontSize=37;" vertex="1" parent="1">
                    <mxGeometry x="247.5" y="3610" width="425" height="120" as="geometry"/>
                </mxCell>
                <mxCell id="45" style="edgeStyle=none;html=1;exitX=0.5;exitY=1;exitDx=0;exitDy=0;fontSize=37;" edge="1" parent="1" source="38" target="44">
                    <mxGeometry relative="1" as="geometry"/>
                </mxCell>
                <mxCell id="100" style="edgeStyle=none;html=1;exitX=1;exitY=0.5;exitDx=0;exitDy=0;entryX=0.5;entryY=1;entryDx=0;entryDy=0;fontSize=37;" edge="1" parent="1" source="38" target="99">
                    <mxGeometry relative="1" as="geometry">
                        <Array as="points">
                            <mxPoint x="945" y="3905"/>
                        </Array>
                    </mxGeometry>
                </mxCell>
                <mxCell id="38" value="检查链是否已更新" style="rhombus;whiteSpace=wrap;html=1;fontSize=37;" vertex="1" parent="1">
                    <mxGeometry x="230" y="3830" width="460" height="150" as="geometry"/>
                </mxCell>
                <mxCell id="42" value="是" style="text;html=1;align=center;verticalAlign=middle;resizable=0;points=[];autosize=1;strokeColor=none;fillColor=none;fontSize=37;" vertex="1" parent="1">
                    <mxGeometry x="470" y="3350" width="50" height="50" as="geometry"/>
                </mxCell>
                <mxCell id="43" value="否" style="text;html=1;align=center;verticalAlign=middle;resizable=0;points=[];autosize=1;strokeColor=none;fillColor=none;fontSize=37;" vertex="1" parent="1">
                    <mxGeometry x="3050" y="3820" width="50" height="50" as="geometry"/>
                </mxCell>
                <mxCell id="46" style="edgeStyle=none;html=1;exitX=0;exitY=0.5;exitDx=0;exitDy=0;entryX=0;entryY=0.5;entryDx=0;entryDy=0;fontSize=37;" edge="1" parent="1" source="44" target="27">
                    <mxGeometry relative="1" as="geometry">
                        <Array as="points">
                            <mxPoint x="-40" y="4140"/>
                            <mxPoint x="-40" y="3110"/>
                        </Array>
                    </mxGeometry>
                </mxCell>
                <mxCell id="44" value="区块上链并扩散到网络中" style="rounded=0;whiteSpace=wrap;html=1;fontSize=37;" vertex="1" parent="1">
                    <mxGeometry x="247.5" y="4080" width="425" height="120" as="geometry"/>
                </mxCell>
                <mxCell id="49" value="是" style="text;html=1;align=center;verticalAlign=middle;resizable=0;points=[];autosize=1;strokeColor=none;fillColor=none;fontSize=37;" vertex="1" parent="1">
                    <mxGeometry x="810" y="3850" width="50" height="50" as="geometry"/>
                </mxCell>
                <mxCell id="50" value="否" style="text;html=1;align=center;verticalAlign=middle;resizable=0;points=[];autosize=1;strokeColor=none;fillColor=none;fontSize=37;" vertex="1" parent="1">
                    <mxGeometry x="480" y="4010" width="50" height="50" as="geometry"/>
                </mxCell>
                <mxCell id="51" value="block handle 流程" style="text;html=1;align=center;verticalAlign=middle;resizable=0;points=[];autosize=1;strokeColor=none;fillColor=none;fontSize=46;" vertex="1" parent="1">
                    <mxGeometry x="1987.5" y="2667" width="380" height="60" as="geometry"/>
                </mxCell>
                <mxCell id="55" style="edgeStyle=none;html=1;exitX=0.5;exitY=1;exitDx=0;exitDy=0;entryX=0.5;entryY=0;entryDx=0;entryDy=0;fontSize=37;" edge="1" parent="1" source="53" target="54">
                    <mxGeometry relative="1" as="geometry"/>
                </mxCell>
                <mxCell id="53" value="&lt;font style=&quot;font-size: 37px&quot;&gt;开始&lt;/font&gt;" style="ellipse;whiteSpace=wrap;html=1;fontSize=46;" vertex="1" parent="1">
                    <mxGeometry x="2040" y="2787" width="275" height="110" as="geometry"/>
                </mxCell>
                <mxCell id="57" style="edgeStyle=none;html=1;exitX=0.5;exitY=1;exitDx=0;exitDy=0;entryX=0.5;entryY=0;entryDx=0;entryDy=0;fontSize=37;" edge="1" parent="1" source="54" target="56">
                    <mxGeometry relative="1" as="geometry"/>
                </mxCell>
                <mxCell id="54" value="&lt;font style=&quot;font-size: 37px&quot;&gt;从工作队列等待block&lt;/font&gt;" style="rounded=0;whiteSpace=wrap;html=1;fontSize=46;" vertex="1" parent="1">
                    <mxGeometry x="1987.5" y="2950" width="380" height="150" as="geometry"/>
                </mxCell>
                <mxCell id="60" style="edgeStyle=none;html=1;exitX=0.5;exitY=1;exitDx=0;exitDy=0;entryX=0.5;entryY=0;entryDx=0;entryDy=0;fontSize=37;" edge="1" parent="1" source="56" target="59">
                    <mxGeometry relative="1" as="geometry"/>
                </mxCell>
                <mxCell id="56" value="&lt;span style=&quot;font-size: 37px&quot;&gt;加入本地map缓存&lt;/span&gt;" style="rounded=0;whiteSpace=wrap;html=1;fontSize=46;" vertex="1" parent="1">
                    <mxGeometry x="1987.5" y="3210" width="380" height="150" as="geometry"/>
                </mxCell>
                <mxCell id="62" style="edgeStyle=none;html=1;exitX=0.5;exitY=1;exitDx=0;exitDy=0;fontSize=37;" edge="1" parent="1" source="59" target="61">
                    <mxGeometry relative="1" as="geometry"/>
                </mxCell>
                <mxCell id="65" style="edgeStyle=none;html=1;exitX=1;exitY=0.5;exitDx=0;exitDy=0;entryX=0.5;entryY=0;entryDx=0;entryDy=0;fontSize=37;" edge="1" parent="1" source="59" target="64">
                    <mxGeometry relative="1" as="geometry">
                        <Array as="points">
                            <mxPoint x="3025" y="3630"/>
                        </Array>
                    </mxGeometry>
                </mxCell>
                <mxCell id="59" value="检查网络中的最新block是否存在在本地map" style="rhombus;whiteSpace=wrap;html=1;fontSize=37;" vertex="1" parent="1">
                    <mxGeometry x="1742.5" y="3520" width="870" height="220" as="geometry"/>
                </mxCell>
                <mxCell id="69" style="edgeStyle=none;html=1;exitX=0.5;exitY=1;exitDx=0;exitDy=0;entryX=0.5;entryY=0;entryDx=0;entryDy=0;fontSize=37;" edge="1" parent="1" source="61" target="68">
                    <mxGeometry relative="1" as="geometry"/>
                </mxCell>
                <mxCell id="61" value="检查网络block与本地block是否分叉并按最长链原则设置最新block" style="rounded=0;whiteSpace=wrap;html=1;fontSize=46;" vertex="1" parent="1">
                    <mxGeometry x="1832.5" y="3960" width="690" height="150" as="geometry"/>
                </mxCell>
                <mxCell id="70" style="edgeStyle=none;html=1;exitX=0.5;exitY=1;exitDx=0;exitDy=0;entryX=1;entryY=0.5;entryDx=0;entryDy=0;fontSize=37;" edge="1" parent="1" source="64" target="68">
                    <mxGeometry relative="1" as="geometry">
                        <Array as="points">
                            <mxPoint x="3025" y="4380"/>
                        </Array>
                    </mxGeometry>
                </mxCell>
                <mxCell id="64" value="检查本地block是否分叉并按最长链原则设置最新block" style="rounded=0;whiteSpace=wrap;html=1;fontSize=46;" vertex="1" parent="1">
                    <mxGeometry x="2680" y="3960" width="690" height="150" as="geometry"/>
                </mxCell>
                <mxCell id="66" value="是" style="text;html=1;align=center;verticalAlign=middle;resizable=0;points=[];autosize=1;strokeColor=none;fillColor=none;fontSize=37;" vertex="1" parent="1">
                    <mxGeometry x="2190" y="3820" width="50" height="50" as="geometry"/>
                </mxCell>
                <mxCell id="71" style="edgeStyle=none;html=1;exitX=0;exitY=0.5;exitDx=0;exitDy=0;entryX=0;entryY=0.5;entryDx=0;entryDy=0;fontSize=37;" edge="1" parent="1" source="68" target="54">
                    <mxGeometry relative="1" as="geometry">
                        <Array as="points">
                            <mxPoint x="1650" y="4385"/>
                            <mxPoint x="1660" y="3025"/>
                        </Array>
                    </mxGeometry>
                </mxCell>
                <mxCell id="68" value="接收此block" style="rounded=0;whiteSpace=wrap;html=1;fontSize=46;" vertex="1" parent="1">
                    <mxGeometry x="1832.5" y="4310" width="690" height="150" as="geometry"/>
                </mxCell>
                <mxCell id="72" value="block body handle 流程" style="text;html=1;align=center;verticalAlign=middle;resizable=0;points=[];autosize=1;strokeColor=none;fillColor=none;fontSize=46;" vertex="1" parent="1">
                    <mxGeometry x="3945" y="2667" width="490" height="60" as="geometry"/>
                </mxCell>
                <mxCell id="75" style="edgeStyle=none;html=1;exitX=0.5;exitY=1;exitDx=0;exitDy=0;entryX=0.5;entryY=0;entryDx=0;entryDy=0;fontSize=37;" edge="1" parent="1" source="73" target="74">
                    <mxGeometry relative="1" as="geometry"/>
                </mxCell>
                <mxCell id="73" value="&lt;font style=&quot;font-size: 37px&quot;&gt;开始&lt;/font&gt;" style="ellipse;whiteSpace=wrap;html=1;fontSize=46;" vertex="1" parent="1">
                    <mxGeometry x="4000" y="2760" width="380" height="137" as="geometry"/>
                </mxCell>
                <mxCell id="78" style="edgeStyle=none;html=1;exitX=0.5;exitY=1;exitDx=0;exitDy=0;entryX=0.5;entryY=0;entryDx=0;entryDy=0;fontSize=37;" edge="1" parent="1" source="74" target="77">
                    <mxGeometry relative="1" as="geometry"/>
                </mxCell>
                <mxCell id="74" value="&lt;font style=&quot;font-size: 37px&quot;&gt;从工作队列等待blockbody&lt;/font&gt;" style="rounded=0;whiteSpace=wrap;html=1;fontSize=46;" vertex="1" parent="1">
                    <mxGeometry x="4000" y="2970" width="380" height="150" as="geometry"/>
                </mxCell>
                <mxCell id="80" style="edgeStyle=none;html=1;exitX=0.5;exitY=1;exitDx=0;exitDy=0;entryX=0.5;entryY=0;entryDx=0;entryDy=0;fontSize=37;" edge="1" parent="1" source="77" target="79">
                    <mxGeometry relative="1" as="geometry"/>
                </mxCell>
                <mxCell id="82" style="edgeStyle=none;html=1;exitX=1;exitY=0.5;exitDx=0;exitDy=0;entryX=0.5;entryY=0;entryDx=0;entryDy=0;fontSize=37;" edge="1" parent="1" source="77" target="81">
                    <mxGeometry relative="1" as="geometry">
                        <Array as="points">
                            <mxPoint x="4840" y="3360"/>
                        </Array>
                    </mxGeometry>
                </mxCell>
                <mxCell id="77" value="检查区块头是否存在本地" style="rhombus;whiteSpace=wrap;html=1;fontSize=37;" vertex="1" parent="1">
                    <mxGeometry x="3755" y="3250" width="870" height="220" as="geometry"/>
                </mxCell>
                <mxCell id="84" style="edgeStyle=none;html=1;exitX=0.5;exitY=1;exitDx=0;exitDy=0;fontSize=37;" edge="1" parent="1" source="79">
                    <mxGeometry relative="1" as="geometry">
                        <mxPoint x="5240" y="3880" as="targetPoint"/>
                        <Array as="points">
                            <mxPoint x="4190" y="4130"/>
                            <mxPoint x="5240" y="4130"/>
                        </Array>
                    </mxGeometry>
                </mxCell>
                <mxCell id="79" value="&lt;span style=&quot;font-size: 37px&quot;&gt;接受并存到本地&lt;/span&gt;" style="rounded=0;whiteSpace=wrap;html=1;fontSize=46;" vertex="1" parent="1">
                    <mxGeometry x="4000" y="3730" width="380" height="150" as="geometry"/>
                </mxCell>
                <mxCell id="83" style="edgeStyle=none;html=1;exitX=0.5;exitY=1;exitDx=0;exitDy=0;entryX=1;entryY=0.5;entryDx=0;entryDy=0;fontSize=37;" edge="1" parent="1" source="81" target="74">
                    <mxGeometry relative="1" as="geometry">
                        <Array as="points">
                            <mxPoint x="5240" y="3880"/>
                            <mxPoint x="5240" y="3040"/>
                        </Array>
                    </mxGeometry>
                </mxCell>
                <mxCell id="81" value="&lt;font style=&quot;font-size: 37px&quot;&gt;拒绝&lt;/font&gt;" style="rounded=0;whiteSpace=wrap;html=1;fontSize=46;" vertex="1" parent="1">
                    <mxGeometry x="4650" y="3730" width="380" height="150" as="geometry"/>
                </mxCell>
                <mxCell id="85" value="是" style="text;html=1;align=center;verticalAlign=middle;resizable=0;points=[];autosize=1;strokeColor=none;fillColor=none;fontSize=37;" vertex="1" parent="1">
                    <mxGeometry x="4210" y="3580" width="50" height="50" as="geometry"/>
                </mxCell>
                <mxCell id="86" value="否" style="text;html=1;align=center;verticalAlign=middle;resizable=0;points=[];autosize=1;strokeColor=none;fillColor=none;fontSize=37;" vertex="1" parent="1">
                    <mxGeometry x="4850" y="3570" width="50" height="50" as="geometry"/>
                </mxCell>
                <mxCell id="90" style="edgeStyle=none;html=1;exitX=0.5;exitY=1;exitDx=0;exitDy=0;fontSize=37;" edge="1" parent="1" source="88" target="27">
                    <mxGeometry relative="1" as="geometry"/>
                </mxCell>
                <mxCell id="88" value="&lt;span style=&quot;font-size: 37px&quot;&gt;打包新的区块头&lt;/span&gt;" style="rounded=0;whiteSpace=wrap;html=1;fontSize=46;" vertex="1" parent="1">
                    <mxGeometry x="270" y="2810" width="380" height="150" as="geometry"/>
                </mxCell>
                <mxCell id="96" style="edgeStyle=none;html=1;exitX=0.5;exitY=1;exitDx=0;exitDy=0;entryX=0.5;entryY=0;entryDx=0;entryDy=0;fontSize=37;" edge="1" parent="1" source="94" target="32">
                    <mxGeometry relative="1" as="geometry"/>
                </mxCell>
                <mxCell id="94" value="从交易队列取交易打包区块体" style="rounded=0;whiteSpace=wrap;html=1;fontSize=37;" vertex="1" parent="1">
                    <mxGeometry x="217.5" y="3420" width="485" height="60" as="geometry"/>
                </mxCell>
                <mxCell id="98" value="否" style="text;html=1;align=center;verticalAlign=middle;resizable=0;points=[];autosize=1;strokeColor=none;fillColor=none;fontSize=37;" vertex="1" parent="1">
                    <mxGeometry x="140" y="3550" width="50" height="50" as="geometry"/>
                </mxCell>
                <mxCell id="102" style="edgeStyle=none;html=1;exitX=0.5;exitY=0;exitDx=0;exitDy=0;entryX=1;entryY=0.5;entryDx=0;entryDy=0;fontSize=37;" edge="1" parent="1" source="99" target="88">
                    <mxGeometry relative="1" as="geometry">
                        <Array as="points">
                            <mxPoint x="950" y="2885"/>
                        </Array>
                    </mxGeometry>
                </mxCell>
                <mxCell id="99" value="舍弃区块" style="rounded=0;whiteSpace=wrap;html=1;fontSize=37;" vertex="1" parent="1">
                    <mxGeometry x="800" y="3610" width="290" height="120" as="geometry"/>
                </mxCell>
                <mxCell id="103" value="message receiver 流程" style="text;html=1;align=center;verticalAlign=middle;resizable=0;points=[];autosize=1;strokeColor=none;fillColor=none;fontSize=46;" vertex="1" parent="1">
                    <mxGeometry x="5800" y="2620" width="480" height="60" as="geometry"/>
                </mxCell>
                <mxCell id="108" style="edgeStyle=none;html=1;exitX=0.5;exitY=1;exitDx=0;exitDy=0;entryX=0.5;entryY=0;entryDx=0;entryDy=0;fontSize=37;" edge="1" parent="1" source="104" target="105">
                    <mxGeometry relative="1" as="geometry"/>
                </mxCell>
                <mxCell id="104" value="&lt;font style=&quot;font-size: 37px&quot;&gt;开始&lt;/font&gt;" style="ellipse;whiteSpace=wrap;html=1;fontSize=46;" vertex="1" parent="1">
                    <mxGeometry x="5902.5" y="2710" width="275" height="110" as="geometry"/>
                </mxCell>
                <mxCell id="110" style="edgeStyle=none;html=1;exitX=0.5;exitY=1;exitDx=0;exitDy=0;entryX=0.5;entryY=0;entryDx=0;entryDy=0;fontSize=37;" edge="1" parent="1" source="105" target="109">
                    <mxGeometry relative="1" as="geometry"/>
                </mxCell>
                <mxCell id="105" value="从connect模块接收消息" style="rounded=0;whiteSpace=wrap;html=1;fontSize=37;" vertex="1" parent="1">
                    <mxGeometry x="5830" y="2960" width="420" height="120" as="geometry"/>
                </mxCell>
                <mxCell id="111" style="edgeStyle=none;html=1;exitX=1;exitY=0.5;exitDx=0;exitDy=0;entryX=1;entryY=0.5;entryDx=0;entryDy=0;fontSize=37;" edge="1" parent="1" source="109" target="105">
                    <mxGeometry relative="1" as="geometry">
                        <Array as="points">
                            <mxPoint x="6410" y="3280"/>
                            <mxPoint x="6410" y="3020"/>
                        </Array>
                    </mxGeometry>
                </mxCell>
                <mxCell id="109" value="根据信令调用不同的处理函数" style="rounded=0;whiteSpace=wrap;html=1;fontSize=37;" vertex="1" parent="1">
                    <mxGeometry x="5827.5" y="3220" width="425" height="120" as="geometry"/>
                </mxCell>
            </root>
        </mxGraphModel>
    </diagram>
</mxfile>